<?xml version="1.0" encoding="UTF-8"?>
<svg viewBox="0 0 1600 1200" xmlns="http://www.w3.org/2000/svg">
 <g transform="rotate(-45 624.54 590)">
  <g fill="none">
   <path d="m659.19 124.85v42.978h43.329v-19.588c-13.376-10.693-27.926-18.608-43.329-23.39z"/>
   <path d="m702.52 570.07v-16.244h-43.331v42.079c15.403-5.336 29.953-14.11 43.331-25.835z"/>
   <path d="m605.51 553.82v46.216c6.255 1.164 12.58 1.938 19.029 1.938 8.298 0 16.386-1.293 24.343-3.197v-44.955l-43.372-2e-3z"/>
   <rect x="551.86" y="500.78" width="43.356" height="42.727"/>
   <rect x="659.19" y="339.83" width="43.328" height="43.337"/>
   <rect x="659.19" y="447.15" width="43.328" height="43.361"/>
   <rect x="659.19" y="393.48" width="43.328" height="43.361"/>
   <rect x="551.86" y="393.48" width="43.356" height="43.361"/>
   <rect x="659.19" y="286.2" width="43.328" height="43.337"/>
   <rect x="551.86" y="339.83" width="43.356" height="43.337"/>
   <rect x="551.86" y="447.15" width="43.356" height="43.361"/>
   <rect x="551.86" y="286.2" width="43.356" height="43.337"/>
   <rect x="551.86" y="232.53" width="43.356" height="43.35"/>
   <rect x="551.86" y="178.13" width="43.356" height="44.088"/>
   <rect x="659.19" y="500.78" width="43.328" height="42.727"/>
   <rect x="712.84" y="286.2" width="43.326" height="43.337"/>
   <path d="m766.47 383.17h16.247c0.70801-9.454 1.167-19.015 1.167-28.767 0-4.948-0.28699-9.728-0.47803-14.569h-16.936v43.336z"/>
   <rect x="712.84" y="339.83" width="43.326" height="43.337"/>
   <rect x="712.84" y="232.53" width="43.326" height="43.35"/>
   <path d="m487.89 339.84h-22.181c-0.186 4.839-0.47598 9.621-0.47598 14.569 0 9.752 0.45898 19.313 1.169 28.767h21.488v-43.336z"/>
   <path d="m712.84 222.22h43.326v-3.077c-7.11-15.25-15.507-28.871-24.806-41.011h-18.52v44.088z"/>
   <path d="m766.47 275.88h8.736c-2.44-10.694-5.361-20.971-8.736-30.805v30.805z"/>
   <path d="m766.47 286.2v43.336h16.597c-0.97797-15.045-2.962-29.472-5.645-43.336h-10.952z"/>
   <path d="m766.47 466.37c2.063-6.276 3.992-12.662 5.705-19.231h-5.705v19.231z"/>
   <rect x="659.19" y="232.53" width="43.328" height="43.35"/>
   <rect x="712.84" y="447.15" width="43.326" height="43.361"/>
   <rect x="712.84" y="393.48" width="43.326" height="43.361"/>
   <path d="m766.47 393.48v43.362h8.137c3.183-13.939 5.561-28.41 7.096-43.362h-15.233z"/>
   <rect x="659.19" y="178.13" width="43.328" height="44.088"/>
   <path d="m541.56 543.51v-42.727h-43.336v3.886c7.017 14.211 14.919 27.294 23.72 38.841h19.616z"/>
   <path d="m541.56 553.82h-11.033c3.574 4.076 7.249 7.905 11.033 11.517v-11.517z"/>
   <path d="m487.89 436.84v-43.362h-20.477c1.536 14.95 3.911 29.423 7.088 43.362h13.389z"/>
   <path d="m476.93 447.15c3.082 11.796 6.79 23.056 10.96 33.877v-33.877h-10.96z"/>
   <path d="m487.89 275.88v-43.35h-0.57098c-5.402 13.52-9.913 27.994-13.413 43.35h13.984z"/>
   <path d="m498.22 208.82v13.4h43.336v-44.088h-23.826c-7.124 9.298-13.652 19.539-19.51 30.688z"/>
   <path d="m562.48 611.26c13.831 23.057 27.433 47.558 34.628 65.609 15.583 38.91 24.322 86.731 26.592 100.31h1.23c2.303-13.58 11.023-61.401 26.592-100.31 7.17-17.969 20.715-42.309 34.44-65.311-19.19 10.113-39.877 15.632-61.423 15.632-21.786-0.002014-42.645-5.642-62.059-15.93z"/>
   <path d="m487.89 329.53v-43.336h-16.198c-2.686 13.864-4.661 28.291-5.642 43.336h21.84z"/>
   <path d="m712.84 553.82v6.497c1.97-2.046 3.814-4.322 5.727-6.497h-5.727z"/>
   <path d="m605.51 167.83h43.372v-45.552c-7.957-1.694-16.047-2.847-24.343-2.847-6.449 0-12.774 0.691-19.029 1.726v46.673z"/>
   <path d="m541.56 167.83v-15.271c-5.352 4.672-10.522 9.716-15.433 15.271h15.433z"/>
   <path d="m712.84 500.78v42.728h14.312c9.602-12.586 18.133-26.991 25.598-42.728h-39.91z"/>
   <path d="m712.84 167.83h10.121c-3.29-3.718-6.629-7.355-10.121-10.683v10.683z"/>
   <rect x="498.22" y="339.83" width="43.337" height="43.337"/>
   <rect x="605.51" y="500.78" width="43.372" height="42.727"/>
   <rect x="605.51" y="178.13" width="43.372" height="44.088"/>
   <rect x="605.51" y="447.15" width="43.372" height="43.361"/>
   <rect x="605.51" y="393.48" width="43.372" height="43.361"/>
   <rect x="605.51" y="232.53" width="43.372" height="43.35"/>
   <rect x="605.51" y="339.83" width="43.372" height="43.337"/>
   <path d="m551.86 167.83h43.356v-44.492c-15.34 3.992-29.89 11.088-43.356 20.898v23.594z"/>
   <path d="m595.22 597.59v-43.765h-43.359v20.63c13.466 10.785 28.016 18.684 43.359 23.135z"/>
   <rect x="605.51" y="286.2" width="43.372" height="43.337"/>
   <rect x="498.22" y="393.48" width="43.337" height="43.361"/>
   <rect x="498.22" y="447.15" width="43.337" height="43.361"/>
   <rect x="498.22" y="286.2" width="43.337" height="43.337"/>
   <rect x="498.22" y="232.53" width="43.337" height="43.35"/>
  </g>
  <path d="m500.75 556.5l-2.134 1.454c0.60199 0.85797 58.215 86.017 75.11 128.28 13.178 33.002 21.392 74.298 24.365 90.955h-5.296v269.9l-13.681 13.66v25.05h88.969v-23.25l-10.987-13.15v-272.21h-6.531c2.984-16.657 11.14-57.953 24.379-90.955 16.906-42.263 74.508-127.42 75.093-128.28l-1.844-1.216c37.371-49.977 60.881-122.16 60.881-202.33 0-150.4-82.776-260.19-184.53-260.19s-184.52 109.79-184.52 260.19c0 80.058 23.445 152.18 60.726 202.1zm-35.516-202.1c0-4.948 0.28699-9.727 0.47598-14.569h22.181v43.336h-21.488c-0.70999-9.451-1.169-19.012-1.169-28.767zm290.94-135.26v3.077h-43.328v-44.088h18.52c9.302 12.137 17.698 25.764 24.808 41.011zm27.716 135.26c0 9.752-0.45898 19.313-1.167 28.767h-16.247v-43.333h16.936c0.18799 4.839 0.47797 9.621 0.47797 14.566zm-27.716-68.204v43.336h-43.328v-43.336h43.328zm-43.328-10.313v-43.35h43.326v43.35h-43.326zm43.328 63.951v43.336h-43.328v-43.336h43.328zm0 53.648v43.362h-43.328v-43.362h43.328zm0 53.663v43.361h-43.328v-43.361h43.328zm10.299-10.301v-43.362h15.228c-1.536 14.95-3.913 29.423-7.096 43.362h-8.132zm5.705 10.301c-1.713 6.569-3.642 12.952-5.705 19.231v-19.231h5.705zm-5.705-117.61v-43.336h10.952c2.683 13.864 4.667 28.291 5.645 43.336h-16.597zm0-53.649v-30.808c3.375 9.837 6.301 20.111 8.736 30.806l-8.736 2e-3zm-63.945-43.35v43.35h-43.331v-43.35h43.331zm-43.331-10.312v-44.088h43.329v44.088h-43.329zm43.331 63.975v43.336h-43.331v-43.336h43.331zm0 53.638v43.336h-43.331v-43.336h43.331zm0 53.648v43.362h-43.331v-43.362h43.331zm0 53.663v43.361h-43.331v-43.361h43.331zm0 53.635v42.728h-43.331v-42.728h43.331zm-43.331-332.95v-42.978c15.406 4.782 29.953 12.697 43.329 23.392v19.589l-43.329-3e-3zm43.331 385.99v16.244c-13.378 11.725-27.928 20.499-43.328 25.835v-42.079h43.328zm-77.981 48.154c-6.449 0-12.774-0.77405-19.029-1.938v-46.216h43.372v44.951c-7.957 1.91-16.047 3.203-24.343 3.203zm-29.319-369.44v43.35h-43.359v-43.35h43.359zm-43.359-10.312v-44.088h43.356v44.088h-43.356zm43.359 63.975v43.336h-43.359v-43.336h43.359zm0 53.638v43.336h-43.359v-43.336h43.359zm0 53.648v43.362h-43.359v-43.362h43.359zm0 53.663v43.361h-43.359v-43.361h43.359zm0 53.635v42.728h-43.359v-42.728h43.359zm53.662-214.58v43.336h-43.372v-43.336h43.372zm-43.372-10.313v-43.35h43.372v43.35h-43.372zm43.372 63.951v43.336h-43.372v-43.336h43.372zm0 53.648v43.362h-43.372v-43.362h43.372zm0 53.663v43.361h-43.372v-43.361h43.372zm0 53.635v42.728h-43.372v-42.728h43.372zm0-278.56h-43.372v-44.088h43.372v44.088zm-53.662-54.39h-43.359v-23.594c13.466-9.812 28.016-16.906 43.356-20.898v44.492h0.002991zm0 385.99v43.765c-15.34-4.451-29.891-12.35-43.356-23.135v-20.63h43.356zm-53.666-267.63v43.336h-43.336v-43.336h43.336zm-43.336-10.313v-43.35h43.336v43.35h-43.336zm43.336 63.951v43.336h-43.336v-43.336h43.336zm0 53.648v43.362h-43.336v-43.362h43.336zm0 53.663v43.361h-43.336v-43.361h43.336zm0-224.92h-43.336v-13.4c5.864-11.149 12.386-21.39 19.512-30.688h23.827v44.088h-0.002991zm-53.668 10.312v43.35h-13.984c3.5-15.356 8.014-29.83 13.413-43.35h0.57098zm-10.957 214.61h10.96v33.877c-4.17-10.821-7.88-22.081-10.96-33.877zm10.957-160.95v43.336h-21.84c0.98102-15.045 2.956-29.472 5.642-43.336h16.198zm0 107.29v43.362h-13.389c-3.177-13.939-5.549-28.41-7.088-43.362h20.477zm10.332 111.19v-3.886h43.336v42.727h-19.619c-8.798-11.547-16.7-24.63-23.717-38.841zm32.303 49.154h11.033v11.517c-3.784-3.612-7.465-7.441-11.033-11.517zm121 123.05c-15.57 38.91-24.292 86.731-26.593 100.31h-1.229c-2.271-13.58-11.009-61.401-26.592-100.31-7.195-18.048-20.792-42.55-34.629-65.609 19.412 10.293 40.274 15.93 62.062 15.93 21.548 0 42.233-5.522 61.423-15.629-13.728 22.991-27.273 47.339-34.442 65.308zm61.313-116.55v-6.497h5.727c-1.91 2.175-3.76 4.451-5.727 6.497zm14.315-16.81h-14.31v-42.727h39.908c-7.468 15.736-16.001 30.136-25.598 42.727zm-4.194-375.68h-10.121v-10.683c3.495 3.328 6.831 6.965 10.121 10.683zm-74.077-45.552v45.555h-43.372v-46.678c6.255-1.036 12.58-1.727 19.029-1.727 8.296 0 16.386 1.156 24.343 2.85zm-107.33 30.281v15.271h-15.435c4.913-5.555 10.083-10.599 15.435-15.271z"/>
 </g>
 <circle cx="803.45" cy="277.68" r="54.93" fill="#fff"/>
 <g fill="none">
  <path d="m837.83 236.15c-9.28 9.424-15.315 22.03-15.315 36.287 0 14.354 6.118 27.046 15.523 36.493 9.6061-9.157 15.663-21.98 15.688-36.301-0.022949-14.41-6.1769-27.322-15.896-36.479z"/>
  <path d="m789.21 272.44c0 15.52-6.2549 29.473-16.214 39.894 8.473 6.511 18.944 10.544 30.459 10.577 11.27-0.036011 21.557-3.874 29.936-10.14-10.216-10.457-16.659-24.58-16.659-40.331 0-15.643 6.3491-29.693 16.439-40.137-8.3369-6.157-18.549-9.923-29.716-9.948-11.415 0.025009-21.811 3.972-30.239 10.382 9.837 10.41 15.994 24.294 15.994 39.703z"/>
  <path d="m768.34 308.48c9.14-9.414 15.077-21.92 15.077-36.045 0-14.026-5.853-26.451-14.871-35.837-9.4111 9.133-15.315 21.861-15.345 36.031 0.030029 14.073 5.836 26.73 15.139 35.851z"/>
 </g>
 <path d="m803.45 332.21c32.919 0 59.607-26.67 59.607-59.581s-26.688-59.593-59.607-59.593c-32.911 0-59.576 26.679-59.576 59.593 0 32.913 26.665 59.581 59.576 59.581zm50.277-59.581c-0.022949 14.32-6.0769 27.143-15.685 36.301-9.405-9.453-15.523-22.139-15.523-36.493 0-14.257 6.035-26.863 15.314-36.288 9.717 9.155 15.871 22.067 15.894 36.48zm-20.561-40.332c-10.09 10.444-16.439 24.494-16.439 40.137 0 15.751 6.443 29.874 16.659 40.331-8.381 6.266-18.666 10.104-29.936 10.14-11.518-0.036011-21.986-4.066-30.459-10.577 9.959-10.421 16.214-24.374 16.214-39.894 0-15.412-6.1569-29.293-15.997-39.7 8.4281-6.413 18.827-10.36 30.239-10.382 11.17 0.024994 21.382 3.788 29.719 9.945zm-64.625 4.301c9.018 9.388 14.871 21.81 14.871 35.836 0 14.126-5.937 26.631-15.077 36.045-9.303-9.121-15.109-21.775-15.137-35.85 0.028076-14.173 5.932-26.899 15.343-36.031z"/>
 <g transform="rotate(45 975.29 587.38)">
  <g fill="none">
   <path d="m1009.9 122.24v42.978h43.33v-19.589c-13.37-10.692-27.92-18.608-43.33-23.389z"/>
   <path d="m1053.3 567.45v-16.245h-43.33v42.08c15.41-5.336 29.96-14.11 43.33-25.835z"/>
   <path d="m956.25 551.21v46.217c6.2549 1.164 12.581 1.937 19.029 1.937 8.298 0 16.386-1.292 24.343-3.197v-44.954l-43.372-3e-3z"/>
   <rect x="902.61" y="498.16" width="43.356" height="42.727"/>
   <rect x="1009.9" y="337.22" width="43.328" height="43.337"/>
   <rect x="1009.9" y="444.53" width="43.328" height="43.361"/>
   <rect x="1009.9" y="390.87" width="43.328" height="43.361"/>
   <rect x="902.61" y="390.87" width="43.356" height="43.361"/>
   <rect x="1009.9" y="283.58" width="43.328" height="43.337"/>
   <rect x="902.61" y="337.22" width="43.356" height="43.337"/>
   <rect x="902.61" y="444.53" width="43.356" height="43.361"/>
   <rect x="902.61" y="283.58" width="43.356" height="43.337"/>
   <rect x="902.61" y="229.92" width="43.356" height="43.35"/>
   <rect x="902.61" y="175.52" width="43.356" height="44.088"/>
   <rect x="1009.9" y="498.16" width="43.328" height="42.727"/>
   <rect x="1063.6" y="283.58" width="43.326" height="43.337"/>
   <path d="m1117.2 380.55h16.25c0.70007-9.454 1.16-19.015 1.16-28.767 0-4.949-0.28003-9.728-0.46997-14.57h-16.94v43.337z"/>
   <rect x="1063.6" y="337.22" width="43.326" height="43.337"/>
   <rect x="1063.6" y="229.92" width="43.326" height="43.35"/>
   <path d="m838.63 337.22h-22.182c-0.18597 4.84-0.47595 9.621-0.47595 14.57 0 9.752 0.45898 19.313 1.17 28.767h21.488v-43.337z"/>
   <path d="m1063.6 219.6h43.33v-3.077c-7.11-15.25-15.51-28.871-24.81-41.011h-18.52v44.088z"/>
   <path d="m1117.2 273.27h8.73c-2.4399-10.695-5.36-20.971-8.73-30.805v30.805z"/>
   <path d="m1117.2 283.58v43.336h16.6c-0.9801-15.045-2.9701-29.472-5.65-43.336h-10.95z"/>
   <path d="m1117.2 463.76c2.0601-6.276 3.99-12.662 5.7001-19.231h-5.7001v19.231z"/>
   <rect x="1009.9" y="229.92" width="43.328" height="43.35"/>
   <rect x="1063.6" y="444.53" width="43.326" height="43.361"/>
   <rect x="1063.6" y="390.87" width="43.326" height="43.361"/>
   <path d="m1117.2 390.87v43.362h8.14c3.18-13.939 5.5601-28.41 7.09-43.362h-15.23z"/>
   <rect x="1009.9" y="175.52" width="43.328" height="44.088"/>
   <path d="m892.3 540.89v-42.727h-43.336v3.885c7.017 14.212 14.919 27.295 23.72 38.842h19.616z"/>
   <path d="m892.3 551.21h-11.033c3.574 4.077 7.249 7.906 11.033 11.518v-11.518z"/>
   <path d="m838.63 434.23v-43.362h-20.477c1.535 14.95 3.91 29.423 7.087 43.362h13.39z"/>
   <path d="m827.67 444.53c3.083 11.796 6.79 23.056 10.96 33.877v-33.877h-10.96z"/>
   <path d="m838.63 273.27v-43.35h-0.57196c-5.402 13.52-9.913 27.994-13.413 43.35h13.985z"/>
   <path d="m848.96 206.2v13.4h43.336v-44.088h-23.826c-7.124 9.298-13.652 19.539-19.51 30.688z"/>
   <path d="m913.22 608.65c13.832 23.057 27.434 47.558 34.628 65.609 15.583 38.91 24.322 86.73 26.592 100.31h1.23c2.303-13.581 11.023-61.401 26.589-100.31 7.17-17.969 20.72-42.309 34.44-65.311-19.19 10.113-39.874 15.632-61.42 15.632-21.786-0.002014-42.645-5.642-62.059-15.93z"/>
   <path d="m838.63 326.92v-43.336h-16.198c-2.686 13.864-4.662 28.291-5.643 43.336h21.841z"/>
   <path d="m1063.6 551.21v6.498c1.9701-2.046 3.8201-4.322 5.7301-6.498h-5.7301z"/>
   <path d="m956.25 165.22h43.372v-45.552c-7.957-1.694-16.047-2.848-24.343-2.848-6.448 0-12.774 0.692-19.029 1.727v46.673z"/>
   <path d="m892.3 165.22v-15.271c-5.352 4.672-10.522 9.716-15.432 15.271h15.432z"/>
   <path d="m1063.6 498.16v42.728h14.31c9.61-12.586 18.14-26.992 25.6-42.728h-39.91z"/>
   <path d="m1063.6 165.22h10.12c-3.2899-3.719-6.63-7.356-10.12-10.684v10.684z"/>
   <rect x="848.96" y="337.22" width="43.337" height="43.337"/>
   <rect x="956.25" y="498.16" width="43.372" height="42.727"/>
   <rect x="956.25" y="175.52" width="43.372" height="44.088"/>
   <rect x="956.25" y="444.53" width="43.372" height="43.361"/>
   <rect x="956.25" y="390.87" width="43.372" height="43.361"/>
   <rect x="956.25" y="229.92" width="43.372" height="43.35"/>
   <rect x="956.25" y="337.22" width="43.372" height="43.337"/>
   <path d="m902.6 165.22h43.356v-44.492c-15.34 3.992-29.89 11.088-43.356 20.898v23.594z"/>
   <path d="m945.96 594.97v-43.766h-43.359v20.63c13.466 10.785 28.016 18.685 43.359 23.136z"/>
   <rect x="956.25" y="283.58" width="43.372" height="43.337"/>
   <rect x="848.96" y="390.87" width="43.337" height="43.361"/>
   <rect x="848.96" y="444.53" width="43.337" height="43.361"/>
   <rect x="848.96" y="283.58" width="43.337" height="43.337"/>
   <rect x="848.96" y="229.92" width="43.337" height="43.35"/>
  </g>
  <path d="m851.49 553.88l-2.134 1.4529c0.60199 0.85803 58.215 86.018 75.11 128.28 13.179 33.002 21.392 74.298 24.365 90.955h-5.296v269.89l-13.681 13.66v25.05h88.967v-23.25l-10.99-13.15v-272.2h-6.53c2.99-16.657 11.14-57.953 24.38-90.955 16.91-42.263 74.51-127.42 75.1-128.28l-1.85-1.215c37.37-49.977 60.88-122.17 60.88-202.33 0-150.4-82.77-260.19-184.53-260.19-101.75 0-184.52 109.79-184.52 260.19 0 80.058 23.445 152.18 60.726 202.1zm-35.516-202.1c0-4.948 0.28699-9.727 0.47595-14.569h22.182v43.336h-21.488c-0.711-9.451-1.17-19.012-1.17-28.767zm290.94-135.26v3.077h-43.33v-44.088h18.52c9.3 12.137 17.7 25.764 24.81 41.011zm27.72 135.26c0 9.752-0.45996 19.313-1.17 28.767h-16.25v-43.334h16.94c0.18994 4.84 0.47998 9.621 0.47998 14.567zm-27.72-68.204v43.336h-43.33v-43.336h43.33zm-43.33-10.313v-43.35h43.33v43.35h-43.33zm43.33 63.95v43.337h-43.33v-43.337h43.33zm0 53.649v43.362h-43.33v-43.362h43.33zm0 53.663v43.361h-43.33v-43.361h43.33zm10.3-10.301v-43.362h15.23c-1.5399 14.95-3.9199 29.423-7.1 43.362h-8.13zm5.7001 10.301c-1.7101 6.569-3.64 12.952-5.7001 19.231v-19.231h5.7001zm-5.7001-117.61v-43.336h10.95c2.6799 13.864 4.6699 28.291 5.65 43.336h-16.6zm0-53.649v-30.808c3.37 9.837 6.3 20.111 8.73 30.805l-8.73 3e-3zm-63.95-43.35v43.35h-43.33v-43.35h43.33zm-43.33-10.312v-44.088h43.33v44.088h-43.33zm43.33 63.975v43.336h-43.33v-43.336h43.33zm0 53.637v43.337h-43.33v-43.337h43.33zm0 53.649v43.362h-43.33v-43.362h43.33zm0 53.663v43.361h-43.33v-43.361h43.33zm0 53.635v42.728h-43.33v-42.728h43.33zm-43.33-332.95v-42.978c15.41 4.781 29.96 12.697 43.33 23.392v19.589l-43.33-3e-3zm43.33 385.99v16.245c-13.37 11.725-27.92 20.499-43.32 25.835v-42.08h43.32zm-77.977 48.154c-6.448 0-12.774-0.77301-19.029-1.937v-46.217h43.372v44.952c-7.957 1.91-16.047 3.202-24.343 3.202zm-29.319-369.44v43.35h-43.359v-43.35h43.359zm-43.359-10.312v-44.088h43.356v44.088h-43.356zm43.359 63.975v43.336h-43.359v-43.336h43.359zm0 53.637v43.337h-43.359v-43.337h43.359zm0 53.649v43.362h-43.359v-43.362h43.359zm0 53.663v43.361h-43.359v-43.361h43.359zm0 53.635v42.728h-43.359v-42.728h43.359zm53.662-214.58v43.336h-43.372v-43.336h43.372zm-43.372-10.313v-43.35h43.372v43.35h-43.372zm43.372 63.95v43.337h-43.372v-43.337h43.372zm0 53.649v43.362h-43.372v-43.362h43.372zm0 53.663v43.361h-43.372v-43.361h43.372zm0 53.635v42.728h-43.372v-42.728h43.372zm0-278.56h-43.372v-44.088h43.372v44.088zm-53.662-54.39h-43.359v-23.594c13.466-9.813 28.016-16.906 43.356-20.898v44.492h0.002991zm0 385.99v43.766c-15.34-4.4509-29.89-12.351-43.356-23.136v-20.63h43.356zm-53.666-267.63v43.336h-43.336v-43.336h43.336zm-43.336-10.313v-43.35h43.336v43.35h-43.336zm43.336 63.95v43.337h-43.336v-43.337h43.336zm0 53.649v43.362h-43.336v-43.362h43.336zm0 53.663v43.361h-43.336v-43.361h43.336zm0-224.92h-43.336v-13.4c5.864-11.149 12.386-21.39 19.512-30.688h23.827v44.088h-0.003052zm-53.667 10.312v43.35h-13.985c3.5-15.356 8.014-29.83 13.413-43.35h0.57196zm-10.958 214.61h10.96v33.877c-4.17-10.821-7.88-22.081-10.96-33.877zm10.958-160.95v43.336h-21.841c0.98102-15.045 2.957-29.472 5.643-43.336h16.198zm0 107.29v43.362h-13.39c-3.177-13.939-5.549-28.41-7.087-43.362h20.477zm10.331 111.19v-3.885h43.336v42.727h-19.618c-8.799-11.547-16.701-24.63-23.718-38.842zm32.303 49.154h11.033v11.518c-3.784-3.612-7.465-7.441-11.033-11.518zm121 123.05c-15.571 38.91-24.293 86.73-26.594 100.31h-1.229c-2.271-13.581-11.009-61.401-26.592-100.31-7.195-18.048-20.791-42.55-34.629-65.609 19.412 10.293 40.274 15.93 62.063 15.93 21.547 0 42.231-5.5219 61.421-15.629-13.73 22.99-27.27 47.339-34.44 65.308zm61.31-116.55v-6.498h5.7301c-1.91 2.1761-3.76 4.4521-5.7301 6.498zm14.32-16.81h-14.31v-42.727h39.9c-7.46 15.736-16 30.136-25.59 42.727zm-4.2001-375.68h-10.12v-10.684c3.5 3.328 6.8301 6.965 10.12 10.684zm-74.074-45.552v45.555h-43.372v-46.678c6.2549-1.036 12.581-1.727 19.029-1.727 8.296 0 16.386 1.156 24.343 2.85zm-107.33 30.281v15.271h-15.435c4.913-5.555 10.083-10.599 15.435-15.271z"/>
 </g>
 <g transform="rotate(-45 631.65 591.02)">
  <g fill="none">
   <path d="m666.29 125.87v42.978h43.33v-19.589c-13.37-10.692-27.92-18.608-43.33-23.389z"/>
   <path d="m709.62 571.09v-16.245h-43.33v42.08c15.41-5.336 29.96-14.11 43.33-25.835z"/>
   <path d="m612.62 554.84v46.217c6.2549 1.164 12.581 1.937 19.029 1.937 8.298 0 16.386-1.292 24.343-3.197v-44.954l-43.372-3e-3z"/>
   <rect x="558.97" y="501.8" width="43.356" height="42.727"/>
   <rect x="666.3" y="340.85" width="43.328" height="43.337"/>
   <rect x="666.3" y="448.17" width="43.328" height="43.361"/>
   <rect x="666.3" y="394.5" width="43.328" height="43.361"/>
   <rect x="558.97" y="394.5" width="43.356" height="43.361"/>
   <rect x="666.3" y="287.22" width="43.328" height="43.337"/>
   <rect x="558.97" y="340.85" width="43.356" height="43.337"/>
   <rect x="558.97" y="448.17" width="43.356" height="43.361"/>
   <rect x="558.97" y="287.22" width="43.356" height="43.337"/>
   <rect x="558.97" y="233.55" width="43.356" height="43.35"/>
   <rect x="558.97" y="179.15" width="43.356" height="44.088"/>
   <rect x="666.3" y="501.8" width="43.328" height="42.727"/>
   <rect x="719.95" y="287.22" width="43.326" height="43.337"/>
   <path d="m773.57 384.19h16.25c0.70007-9.454 1.16-19.015 1.16-28.767 0-4.949-0.28003-9.728-0.46997-14.57h-16.94v43.337z"/>
   <rect x="719.95" y="340.85" width="43.326" height="43.337"/>
   <rect x="719.95" y="233.55" width="43.326" height="43.35"/>
   <path d="m494.99 340.85h-22.182c-0.18594 4.84-0.47592 9.621-0.47592 14.57 0 9.752 0.45898 19.313 1.17 28.767h21.488v-43.337z"/>
   <path d="m719.94 223.24h43.33v-3.077c-7.11-15.25-15.51-28.871-24.81-41.011h-18.52v44.088z"/>
   <path d="m773.57 276.9h8.73c-2.4399-10.695-5.36-20.971-8.73-30.805v30.805z"/>
   <path d="m773.57 287.22v43.336h16.6c-0.9801-15.045-2.9701-29.472-5.65-43.336h-10.95z"/>
   <path d="m773.57 467.39c2.0601-6.276 3.99-12.662 5.7001-19.231h-5.7001v19.231z"/>
   <rect x="666.3" y="233.55" width="43.328" height="43.35"/>
   <rect x="719.95" y="448.17" width="43.326" height="43.361"/>
   <rect x="719.95" y="394.5" width="43.326" height="43.361"/>
   <path d="m773.57 394.5v43.362h8.14c3.18-13.939 5.5601-28.41 7.09-43.362h-15.23z"/>
   <rect x="666.3" y="179.15" width="43.328" height="44.088"/>
   <path d="m548.66 544.53v-42.727h-43.336v3.885c7.017 14.212 14.919 27.295 23.72 38.842h19.616z"/>
   <path d="m548.66 554.84h-11.033c3.574 4.077 7.249 7.906 11.033 11.518v-11.518z"/>
   <path d="m494.99 437.86v-43.362h-20.477c1.535 14.95 3.91 29.423 7.087 43.362h13.39z"/>
   <path d="m484.04 448.17c3.083 11.796 6.79 23.056 10.96 33.877v-33.877h-10.96z"/>
   <path d="m494.99 276.9v-43.35h-0.57196c-5.402 13.52-9.913 27.994-13.413 43.35h13.985z"/>
   <path d="m505.33 209.84v13.4h43.336v-44.088h-23.826c-7.124 9.298-13.652 19.539-19.51 30.688z"/>
   <path d="m569.58 612.28c13.832 23.057 27.434 47.558 34.628 65.609 15.583 38.91 24.322 86.73 26.592 100.31h1.23c2.303-13.581 11.023-61.401 26.589-100.31 7.1699-17.969 20.72-42.309 34.44-65.311-19.19 10.113-39.874 15.632-61.42 15.632-21.786-0.002014-42.645-5.642-62.059-15.93z"/>
   <path d="m494.99 330.55v-43.336h-16.198c-2.686 13.864-4.662 28.291-5.643 43.336h21.841z"/>
   <path d="m719.94 554.84v6.498c1.9701-2.046 3.8201-4.322 5.7301-6.498h-5.7301z"/>
   <path d="m612.62 168.85h43.372v-45.552c-7.957-1.694-16.047-2.848-24.343-2.848-6.448 0-12.774 0.692-19.029 1.727v46.673z"/>
   <path d="m548.66 168.85v-15.271c-5.352 4.672-10.522 9.716-15.432 15.271h15.432z"/>
   <path d="m719.94 501.8v42.728h14.31c9.61-12.586 18.14-26.992 25.6-42.728h-39.91z"/>
   <path d="m719.94 168.85h10.12c-3.2899-3.719-6.63-7.356-10.12-10.684v10.684z"/>
   <rect x="505.33" y="340.85" width="43.337" height="43.337"/>
   <rect x="612.62" y="501.8" width="43.372" height="42.727"/>
   <rect x="612.62" y="179.15" width="43.372" height="44.088"/>
   <rect x="612.62" y="448.17" width="43.372" height="43.361"/>
   <rect x="612.62" y="394.5" width="43.372" height="43.361"/>
   <rect x="612.62" y="233.55" width="43.372" height="43.35"/>
   <rect x="612.62" y="340.85" width="43.372" height="43.337"/>
   <path d="m558.97 168.85h43.356v-44.492c-15.34 3.992-29.89 11.088-43.356 20.898v23.594z"/>
   <path d="m602.33 598.61v-43.766h-43.359v20.63c13.466 10.785 28.016 18.685 43.359 23.136z"/>
   <rect x="612.62" y="287.22" width="43.372" height="43.337"/>
   <rect x="505.33" y="394.5" width="43.337" height="43.361"/>
   <rect x="505.33" y="448.17" width="43.337" height="43.361"/>
   <rect x="505.33" y="287.22" width="43.337" height="43.337"/>
   <rect x="505.33" y="233.55" width="43.337" height="43.35"/>
  </g>
  <path d="m507.85 557.52l-2.134 1.4529c0.60199 0.85803 58.215 86.018 75.11 128.28 13.179 33.002 21.392 74.298 24.365 90.955h-5.296v269.89l-13.681 13.66v25.05h88.967v-23.25l-10.99-13.15v-272.2h-6.53c2.99-16.657 11.14-57.953 24.38-90.955 16.91-42.263 74.51-127.42 75.1-128.28l-1.85-1.215c37.37-49.977 60.88-122.17 60.88-202.33 0-150.4-82.77-260.19-184.53-260.19-101.75 0-184.52 109.79-184.52 260.19 0 80.058 23.445 152.18 60.726 202.1zm-35.516-202.1c0-4.948 0.28699-9.727 0.47592-14.569h22.182v43.336h-21.488c-0.71097-9.451-1.17-19.012-1.17-28.767zm290.94-135.26v3.077h-43.33v-44.088h18.52c9.3 12.137 17.7 25.764 24.81 41.011zm27.72 135.26c0 9.752-0.45996 19.313-1.17 28.767h-16.25v-43.334h16.94c0.18994 4.84 0.47998 9.621 0.47998 14.567zm-27.72-68.204v43.336h-43.33v-43.336h43.33zm-43.33-10.313v-43.35h43.33v43.35h-43.33zm43.33 63.95v43.337h-43.33v-43.337h43.33zm0 53.649v43.362h-43.33v-43.362h43.33zm0 53.663v43.361h-43.33v-43.361h43.33zm10.3-10.301v-43.362h15.23c-1.5399 14.95-3.9199 29.423-7.1 43.362h-8.13zm5.7001 10.301c-1.7101 6.569-3.64 12.952-5.7001 19.231v-19.231h5.7001zm-5.7001-117.61v-43.336h10.95c2.6799 13.864 4.6699 28.291 5.65 43.336h-16.6zm0-53.649v-30.808c3.37 9.837 6.3 20.111 8.73 30.805l-8.73 3e-3zm-63.95-43.35v43.35h-43.33v-43.35h43.33zm-43.33-10.312v-44.088h43.33v44.088h-43.33zm43.33 63.975v43.336h-43.33v-43.336h43.33zm0 53.637v43.337h-43.33v-43.337h43.33zm0 53.649v43.362h-43.33v-43.362h43.33zm0 53.663v43.361h-43.33v-43.361h43.33zm0 53.635v42.728h-43.33v-42.728h43.33zm-43.33-332.95v-42.978c15.41 4.781 29.96 12.697 43.33 23.392v19.589l-43.33-3e-3zm43.33 385.99v16.245c-13.37 11.725-27.92 20.499-43.32 25.835v-42.08h43.32zm-77.977 48.154c-6.448 0-12.774-0.77301-19.029-1.937v-46.217h43.372v44.952c-7.957 1.91-16.047 3.202-24.343 3.202zm-29.319-369.44v43.35h-43.359v-43.35h43.359zm-43.359-10.312v-44.088h43.356v44.088h-43.356zm43.359 63.975v43.336h-43.359v-43.336h43.359zm0 53.637v43.337h-43.359v-43.337h43.359zm0 53.649v43.362h-43.359v-43.362h43.359zm0 53.663v43.361h-43.359v-43.361h43.359zm0 53.635v42.728h-43.359v-42.728h43.359zm53.662-214.58v43.336h-43.372v-43.336h43.372zm-43.372-10.313v-43.35h43.372v43.35h-43.372zm43.372 63.95v43.337h-43.372v-43.337h43.372zm0 53.649v43.362h-43.372v-43.362h43.372zm0 53.663v43.361h-43.372v-43.361h43.372zm0 53.635v42.728h-43.372v-42.728h43.372zm0-278.56h-43.372v-44.088h43.372v44.088zm-53.662-54.39h-43.359v-23.594c13.466-9.813 28.016-16.906 43.356-20.898v44.492h0.002991zm0 385.99v43.766c-15.34-4.451-29.89-12.351-43.356-23.136v-20.63h43.356zm-53.666-267.63v43.336h-43.336v-43.336h43.336zm-43.336-10.313v-43.35h43.336v43.35h-43.336zm43.336 63.95v43.337h-43.336v-43.337h43.336zm0 53.649v43.362h-43.336v-43.362h43.336zm0 53.663v43.361h-43.336v-43.361h43.336zm0-224.92h-43.336v-13.4c5.864-11.149 12.386-21.39 19.512-30.688h23.827v44.088h-0.003052zm-53.667 10.312v43.35h-13.985c3.5-15.356 8.014-29.83 13.413-43.35h0.57196zm-10.958 214.61h10.96v33.877c-4.17-10.821-7.88-22.081-10.96-33.877zm10.958-160.95v43.336h-21.841c0.98099-15.045 2.957-29.472 5.643-43.336h16.198zm0 107.29v43.362h-13.39c-3.177-13.939-5.549-28.41-7.087-43.362h20.477zm10.331 111.19v-3.885h43.336v42.727h-19.618c-8.799-11.547-16.701-24.63-23.718-38.842zm32.303 49.154h11.033v11.518c-3.784-3.612-7.465-7.441-11.033-11.518zm121 123.05c-15.571 38.91-24.293 86.73-26.594 100.31h-1.229c-2.271-13.581-11.009-61.401-26.592-100.31-7.195-18.048-20.791-42.55-34.629-65.609 19.412 10.293 40.274 15.93 62.063 15.93 21.547 0 42.231-5.522 61.421-15.629-13.73 22.99-27.27 47.339-34.44 65.308zm61.31-116.55v-6.498h5.7301c-1.91 2.176-3.76 4.452-5.7301 6.498zm14.32-16.81h-14.31v-42.727h39.9c-7.46 15.736-16 30.136-25.59 42.727zm-4.2001-375.68h-10.12v-10.684c3.5 3.328 6.8301 6.965 10.12 10.684zm-74.074-45.552v45.555h-43.372v-46.678c6.2549-1.036 12.581-1.727 19.029-1.727 8.296 0 16.386 1.156 24.343 2.85zm-107.33 30.281v15.271h-15.435c4.913-5.555 10.083-10.599 15.435-15.271z"/>
 </g>
</svg>
