<?xml version="1.0" encoding="UTF-8"?>
<svg enable-background="new 0 0 135.062 362.887" viewBox="0 0 135.062 362.887" xmlns="http://www.w3.org/2000/svg">
 <path d="m22.224,169.182-.781.532c.22.314 21.305,31.48 27.488,46.947 4.823,12.078 7.829,27.191 8.917,33.287h-1.938v98.773l-5.007,5v9.166h32.56v-7.684-.824l-4.021-4.812v-97.303-2.316h-2.39c1.092-6.096 4.077-21.209 8.922-33.287 6.187-15.467 27.268-46.632 27.482-46.947l-.675-.445c13.677-18.29 22.281-44.709 22.281-74.047 0-55.042-30.294-95.222-67.533-95.222s-67.529,40.18-67.529,95.221c0,29.299 8.58,55.692 22.224,73.961zm-12.998-73.961c0-1.811.105-3.56.174-5.332h8.118v15.86h-7.864c-.26-3.459-.428-6.958-.428-10.528zm106.475-49.5v1.126h-15.857v-16.135h6.778c3.404,4.442 6.477,9.429 9.079,15.009zm10.143,49.5c0,3.569-.168,7.068-.427,10.528h-5.946v-15.859h6.198c.069,1.771.175,3.521.175,5.331zm-10.143-24.961v15.86h-15.857v-15.86h15.857zm-15.857-3.774v-15.865h15.856v15.865h-15.856zm15.857,23.404v15.86h-15.857v-15.86h15.857zm0,19.634v15.869h-15.857v-15.869h15.857zm0,19.639v15.869h-15.857v-15.869h15.857zm3.769-3.77v-15.869h5.573c-.562,5.471-1.432,10.768-2.597,15.869h-2.976zm2.088,3.77c-.627,2.404-1.333,4.74-2.088,7.038v-7.038h2.088zm-2.088-43.043v-15.86h4.008c.982,5.074 1.708,10.354 2.066,15.86h-6.074zm0-19.634v-11.275c1.235,3.6 2.306,7.36 3.197,11.274l-3.197.001zm-23.402-15.865v15.865h-15.858v-15.865h15.858zm-15.858-3.774v-16.135h15.857v16.135h-15.857zm15.858,23.413v15.86h-15.858v-15.86h15.858zm0,19.63v15.86h-15.858v-15.86h15.858zm0,19.634v15.869h-15.858v-15.869h15.858zm0,19.639v15.869h-15.858v-15.869h15.858zm0,19.629v15.637h-15.858v-15.637h15.858zm-15.858-121.85v-15.729c5.638,1.75 10.962,4.647 15.857,8.561v7.169l-15.857-.001zm15.858,141.262v5.945c-4.896,4.291-10.221,7.502-15.857,9.455v-15.4h15.857zm-28.539,17.623c-2.36,0-4.675-.283-6.964-.709v-16.914h15.873v16.451c-2.912.699-5.873,1.172-8.909,1.172zm-10.73-135.206v15.865h-15.868v-15.865h15.868zm-15.868-3.774v-16.135h15.867v16.135h-15.867zm15.868,23.413v15.86h-15.868v-15.86h15.868zm0,19.63v15.86h-15.868v-15.86h15.868zm0,19.634v15.869h-15.868v-15.869h15.868zm0,19.639v15.869h-15.868v-15.869h15.868zm0,19.629v15.637h-15.868v-15.637h15.868zm19.639-78.532v15.86h-15.873v-15.86h15.873zm-15.873-3.774v-15.865h15.873v15.865h-15.873zm15.873,23.404v15.86h-15.873v-15.86h15.873zm0,19.634v15.869h-15.873v-15.869h15.873zm0,19.639v15.869h-15.873v-15.869h15.873zm0,19.629v15.637h-15.873v-15.637h15.873zm0-101.945h-15.873v-16.135h15.873v16.135zm-19.639-19.905h-15.868v-8.635c4.928-3.591 10.253-6.187 15.867-7.648v16.283zm0,141.262v16.017c-5.614-1.629-10.939-4.52-15.867-8.467v-7.55h15.867zm-19.64-97.944v15.86h-15.86v-15.86h15.86zm-15.86-3.774v-15.865h15.86v15.865h-15.86zm15.86,23.404v15.86h-15.86v-15.86h15.86zm0,19.634v15.869h-15.86v-15.869h15.86zm0,19.639v15.869h-15.86v-15.869h15.86zm0-82.316h-15.86v-4.904c2.146-4.08 4.533-7.828 7.141-11.231h8.72v16.135zm-19.641,3.774v15.865h-5.118c1.281-5.62 2.933-10.917 4.909-15.865h.209zm-4.01,78.542h4.011v12.398c-1.526-3.96-2.884-8.081-4.011-12.398zm4.01-58.903v15.86h-7.993c.359-5.506 1.082-10.786 2.065-15.86h5.928zm0,39.264v15.869h-4.9c-1.163-5.101-2.031-10.397-2.594-15.869h7.494zm3.781,40.691v-1.422h15.86v15.637h-7.18c-3.22-4.226-6.112-9.014-8.68-14.215zm11.822,17.989h4.038v4.215c-1.385-1.322-2.732-2.723-4.038-4.215zm44.284,45.033c-5.698,14.24-8.89,31.741-9.732,36.711h-.45c-.831-4.97-4.029-22.471-9.732-36.711-2.633-6.605-7.609-15.572-12.673-24.011 7.104,3.767 14.739,5.83 22.713,5.83 7.886,0 15.456-2.021 22.479-5.72-5.024,8.414-9.981,17.325-12.605,23.901zm22.439-42.655v-2.378h2.096c-.699.796-1.376,1.629-2.096,2.378zm5.239-6.152h-5.237v-15.637h14.605c-2.733,5.759-5.856,11.029-9.368,15.637zm-1.535-137.488h-3.704v-3.91c1.279,1.218 2.5,2.549 3.704,3.91zm-27.11-16.671v16.672h-15.873v-17.083c2.289-.379 4.604-.632 6.964-.632 3.036,0 5.997.423 8.909,1.043zm-39.279,11.082v5.589h-5.649c1.798-2.033 3.69-3.879 5.649-5.589z"/>
 <path d="m92.855 74.444a19.735 19.735 0 1 0 -39.47 0 19.735 19.735 0 1 0 39.47 0" fill="#fff"/>
 <path d="m73.12,95.854c11.827,0 21.415-9.582 21.415-21.406s-9.588-21.41-21.415-21.41c-11.824,0-21.404,9.585-21.404,21.41s9.58,21.406 21.404,21.406zm18.063-21.406c-.008,5.145-2.183,9.752-5.635,13.042-3.379-3.396-5.577-7.954-5.577-13.111 0-5.122 2.168-9.651 5.502-13.037 3.491,3.289 5.702,7.928 5.71,13.106zm-7.387-14.49c-3.625,3.752-5.906,8.8-5.906,14.42 0,5.659 2.315,10.733 5.985,14.49-3.011,2.251-6.706,3.63-10.755,3.643-4.138-.013-7.899-1.461-10.943-3.8 3.578-3.744 5.825-8.757 5.825-14.333 0-5.537-2.212-10.524-5.747-14.263 3.028-2.304 6.764-3.722 10.864-3.73 4.013.009 7.682,1.361 10.677,3.573zm-23.218,1.545c3.24,3.373 5.343,7.836 5.343,12.875 0,5.075-2.133,9.568-5.417,12.95-3.342-3.277-5.428-7.823-5.438-12.88 .01-5.092 2.131-9.664 5.512-12.945z"/>
</svg>
