<?xml version='1.0' encoding='utf-8'?>
<svg xmlns="http://www.w3.org/2000/svg" version="1.1" width="600px" height="976px" viewBox="0 0 600 976"> <g id="layer1"> <g style="fill:rgb(0,0,0); fill-opacity:1.0; stroke-linejoin: miter"> <path d="M81.03211,155.25688C81.145836,155.25722,81.26057,155.48418,81.26249,155.82552C81.26414,156.1103,80.98077,156.3968,80.638954,156.39873C80.637764,156.39873,80.63659,156.39873,80.63543,156.39873C80.35308,156.39796,80.239204,156.11485,80.40786,155.83022C80.576836,155.48738,80.860466,155.25795,81.03147,155.25688 Z M68.189606,227.87024C69.314545,227.87338,70.82805,228.20724,73.00888,228.86276L74.89264,229.47906L73.587296,230.39792C72.84973,230.97198,71.88455,231.60413,71.37366,231.94876C67.28558,234.53568,65.35628,235.97083,64.563934,236.94409C64.25261,237.34296,64.055405,237.58017,63.949417,237.5799C63.76648,237.57938,63.855194,236.87146,64.0977,235.06625C64.31607,233.35562,64.53375,231.53116,64.53053,230.9613C64.58472,230.44815,65.09213,229.4766,65.77202,228.78928C66.3835,228.17084,67.10643,227.86722,68.189606,227.87024 Z M531.3369,52.50878C530.81854,52.507347,530.2183,52.51539,529.51587,52.52842C524.33124,52.614403,522.1135,53.424538,516.55066,57.216278C514.8481,58.422173,512.5192,59.745808,511.4392,60.207676C510.3023,60.669727,509.1101,61.47411,508.65686,61.93247C508.2608,62.447556,507.6363,62.84993,507.18054,62.852356C506.2119,62.857773,502.6336,64.92909,499.85406,67.166885C498.60593,68.14242,495.82205,69.58245,493.60373,70.27865C491.44266,71.03138,489.05484,71.95633,488.37357,72.41611C487.69235,72.875534,486.61172,73.22345,486.04196,73.22659C485.4152,73.23009,483.99295,73.63698,482.91293,74.099014C481.7759,74.56105,479.6702,75.02848,478.24606,75.09356C478.0128,75.10085,477.79648,75.104866,477.59396,75.1043C475.86844,75.09951,475.1528,74.76034,473.56345,73.23929C470.6423,70.52057,469.43808,69.15991,469.37704,68.419235C469.3751,68.07741,468.85815,67.33967,468.22827,66.77346C467.5984,66.207085,467.08136,65.46917,467.07947,65.12736C467.0775,64.78553,465.24316,62.801414,463.00928,60.705654L458.94214,56.853653L455.40955,56.873367C451.53497,56.89499,451.19415,57.0679,449.78198,59.297848C448.088,62.04234,448.9757,67.96338,451.43726,70.000885C451.9522,70.396805,452.69934,71.532196,453.10394,72.555725C453.50806,73.52203,454.82874,75.3381,455.97504,76.528114C457.17853,77.775,458.72974,80.0456,459.42236,81.63712C460.17163,83.17137,460.9218,84.876816,461.15228,85.33118C461.3828,85.78572,461.9013,86.80858,462.3615,87.603714C462.82172,88.39885,463.22986,90.04897,463.23718,91.35955C463.25153,93.923454,465.10785,99.839096,466.36896,101.19942C466.77063,101.71013,467.57538,102.95912,468.0938,103.98191C469.01538,105.7432,469.01636,105.91404,467.999,107.40118C467.37698,108.25932,466.8126,109.23122,466.7009,109.63063C466.58914,110.03017,464.83432,112.09105,462.7956,114.324814C460.7564,116.50138,458.43433,119.02131,457.64136,119.88065C456.84875,120.79652,454.69604,123.03101,452.82556,124.80777C451.01215,126.584045,448.68872,128.87631,447.66913,129.96472C446.70618,130.99564,445.00543,132.54349,443.9843,133.34698C442.96344,134.2074,440.69513,136.15742,438.9944,137.70512C437.29364,139.25316,434.74066,141.26167,433.32135,142.18138C431.902,143.10094,427.5889,146.20189,423.67334,149.0726C419.75742,151.8865,415.16037,155.16003,413.45737,156.30904C411.75436,157.45818,409.82535,158.95042,409.1451,159.58101C408.52188,160.21126,407.10287,161.18785,406.02304,161.70659C404.09122,162.68614,403.014,163.66081,399.27518,167.55624C398.19894,168.70193,395.8762,171.10794,394.17673,172.88385C391.0607,176.09198,387.89603,180.78198,384.0045,187.98323C381.1849,193.24104,376.7153,198.96404,374.38663,200.28749C373.30753,200.92018,371.3193,202.01387,370.01266,202.70499C367.62625,203.91489,362.97946,208.4992,359.81284,212.84741C358.96457,213.9917,355.6273,218.39781,352.40274,222.57521C349.1782,226.75276,346.40756,230.58589,346.23917,231.04253C346.07077,231.49934,344.767,232.7033,343.29092,233.68007C340.3395,235.74791,339.94296,236.14903,339.49814,238.1457C339.27475,238.94469,338.3713,240.43132,337.40817,241.40529C335.99197,242.89456,335.1965,243.29797,333.48715,243.30737C330.92313,243.32169,328.76376,244.35953,326.83792,246.42142C326.04465,247.22351,324.96597,247.91345,324.39615,247.9166C323.8264,247.91971,322.80423,248.55225,322.1249,249.35364C321.44565,250.15527,320.5945,250.78671,320.2526,250.78864C319.91068,250.79056,319.0026,251.42236,318.26633,252.22412C317.53006,253.02591,316.62186,253.65787,316.22305,253.65997C314.9125,253.6673,301.12787,264.6844,297.0493,268.9806C290.9296,275.4429,287.39755,278.9742,287.09732,278.9734C287.08353,278.97336,287.07657,278.96585,287.07645,278.9508C287.0756,278.77982,287.92075,277.06586,288.93582,275.1798C289.95096,273.2938,291.079,271.23618,291.41733,270.6075C294.46207,264.83548,295.795,258.61728,296.24796,247.90253L296.5524,241.17725L293.9556,235.32271C292.5131,232.08302,291.3561,228.95552,291.35294,228.38579C291.34946,227.75905,290.36807,225.4853,289.15915,223.27C287.25943,219.80467,287.02707,219.00832,287.47348,217.29625C288.30997,214.04381,286.99762,203.50983,285.44513,201.01132C284.0664,198.68576,281.14948,195.7435,280.29077,195.74112L280.2848,195.74109C280.0036,195.73792,280.1145,195.05515,280.56366,194.14401C281.8598,191.57278,282.73907,185.75592,282.3189,181.9407C281.78815,176.40839,281.38745,174.14308,280.21356,174.13982C279.5144,174.13786,278.54102,174.93834,277.10248,176.32886C275.8556,177.53226,272.84882,179.88507,270.408,181.55124C266.54813,184.19385,265.4114,184.71295,262.16586,185.12994C260.116,185.36932,256.0753,186.24649,253.23091,187.06009C250.44337,187.87335,246.68883,188.97699,244.98235,189.4992C243.27559,189.96457,240.20671,191.40619,238.16206,192.61412C236.1176,193.82228,232.9361,195.49245,231.06055,196.35756C225.15004,199.12544,216.92068,204.98329,215.51022,207.49837C214.83353,208.75569,213.81516,210.07185,213.24762,210.47386C211.77225,211.56459,210.47449,213.85106,209.52328,216.99028C209.07605,218.53136,207.89441,221.21599,206.82175,222.98842C205.8057,224.70328,204.62434,227.44498,204.23409,228.9855C203.84383,230.52625,202.89235,233.60837,202.16435,235.8917C200.42757,241.20047,200.45558,246.21454,202.32649,254.751C204.7838,266.24744,206.33998,269.42944,212.64256,275.6622C215.22096,278.21198,217.85936,281.33115,218.4359,282.52448C219.06926,283.7176,220.39055,285.64743,221.42256,286.78125C223.14299,288.7659,224.47127,291.9496,224.4846,294.34268C224.48808,294.96942,225.12819,297.35886,225.93892,299.69055C227.32835,303.61444,227.33052,304.0133,226.48296,305.2717C225.91823,306.18637,225.64156,307.66934,225.70769,309.32135C225.95763,313.25168,225.90086,313.30893,223.79784,314.2323C222.37654,314.8102,221.75362,315.4973,221.47563,316.7524C221.14305,318.40674,220.91573,318.52188,217.89787,318.8806C211.3492,319.6009,210.3821,319.8912,209.76137,320.97723C209.4377,321.59253,209.08266,321.85568,208.2754,321.85345C207.95793,321.85257,207.57051,321.81064,207.0876,321.7329C206.77534,321.68787,206.35219,321.6648,205.86256,321.66345C204.5637,321.65985,202.79692,321.80908,201.39162,322.10648C199.99086,322.35242,199.0685,322.4851,198.37352,322.48315C197.57164,322.48093,197.07243,322.2995,196.49028,321.90594C195.74706,321.45422,194.0348,320.951,192.66606,320.73077C192.28923,320.6818,191.92616,320.65634,191.57533,320.65536C188.7939,320.6476,186.78423,322.17883,184.8307,325.73157C181.78471,331.2757,178.9546,334.65323,176.62389,335.6349C173.66765,336.8479,169.2403,339.89255,165.95242,342.93088C164.53549,344.30634,162.94751,345.62582,162.49356,345.9701C162.0393,346.25763,160.45032,347.40594,158.97458,348.43976C157.49887,349.47375,155.51039,350.51044,154.59967,350.68658C153.68903,350.8625,152.55354,351.6095,152.10188,352.35284C151.5928,353.03937,150.5145,353.78625,149.661,354.0188C147.83995,354.4278,145.62796,356.2636,145.63434,357.403C145.6366,357.80188,145.18484,358.54523,144.67491,359.06085C142.91713,360.60925,136.43439,362.92462,133.87039,362.9389C131.36336,362.95288,128.00893,364.28192,128.01433,365.25067C128.0159,365.5354,126.594345,366.05634,124.83028,366.4649C123.06612,366.87378,119.99663,368.20117,118.00903,369.40894C116.07851,370.6162,114.08969,371.5962,113.69081,371.59845L113.6891,371.59845C113.28699,371.5973,111.51687,370.4688,109.802025,369.0558C108.087166,367.64288,106.31707,366.51474,105.914955,366.51358L105.91064,366.51358C105.04446,366.51114,98.08546,362.9094,96.65577,361.7219C96.19775,361.32547,94.02721,360.36893,91.80023,359.52664C89.63031,358.68423,87.28914,357.78543,86.66081,357.50406C86.032394,357.22275,84.434784,356.83292,83.12334,356.6691C81.811554,356.44852,80.09871,355.83133,79.41217,355.32236C78.66826,354.75687,75.810074,353.12033,73.00999,351.65445C67.6954,348.89194,66.09368,347.76126,60.99659,343.11743C59.278313,341.53152,56.417347,339.38217,54.58794,338.30994C52.8156,337.237,50.011326,335.03046,48.407368,333.50104C46.80313,331.91458,43.998093,329.59406,42.22426,328.2364C40.507557,326.93542,38.159336,324.78333,37.12708,323.5926C35.650986,321.90826,34.79544,321.3377,33.45143,321.33395C33.437912,321.33392,33.424377,321.33395,33.410767,321.334C32.49916,321.33908,31.418121,321.63013,31.078217,321.97385C31.027985,322.02463,30.981262,322.05072,30.93805,322.0506C30.640152,322.04977,30.50914,320.80316,30.542206,317.81723C30.52504,314.74048,30.166656,311.77942,29.468626,309.21936C28.365011,305.46472,28.364393,305.3508,29.436186,303.40753C29.999617,302.2648,31.697918,300.261,33.11465,298.88553C34.701794,297.39517,35.945446,295.62186,36.167675,294.595C36.39015,293.6252,36.72761,292.82556,36.955486,292.82434C37.183453,292.8229,38.316055,291.5631,39.50354,289.961C40.634583,288.41626,42.61615,286.12595,43.805634,284.8658C45.05217,283.60532,46.23886,281.83237,46.40506,280.97668C46.6279,280.06393,47.30333,278.57852,47.868057,277.66385C48.432453,276.692,48.880375,275.265,48.875217,274.3533C48.869816,273.38474,49.151524,272.81326,49.721302,272.81012C50.86089,272.80365,54.20319,269.3094,56.00931,266.22235C58.040882,262.67838,70.22214,250.24564,73.233444,248.69043C74.5401,247.99951,75.73158,247.081,75.90022,246.68124C76.068695,246.22446,76.52254,245.88019,76.864456,245.87827C77.26332,245.87598,78.1711,245.18713,78.964325,244.38501C79.70067,243.58322,82.482445,241.74435,85.15209,240.24796C87.82217,238.80856,90.31997,237.14224,90.715614,236.5701C91.111275,235.99811,91.84945,235.53836,92.30529,235.53574C92.76113,235.5333,95.26023,234.09467,97.87163,232.37088C100.48309,230.64679,102.92523,229.20871,103.38072,229.1492C103.83656,229.14658,105.20055,228.51233,106.44995,227.7645C107.69937,227.01682,109.74419,225.8659,110.99422,225.23215C112.24417,224.59842,114.80025,223.15964,116.67413,222.0094C120.87692,219.53604,124.74121,217.69104,125.82381,217.68494C126.27966,217.68234,126.79028,217.28082,126.95859,216.824C127.12697,216.36725,127.86479,215.85022,128.49034,215.61887C129.17317,215.44415,130.64856,214.35327,131.78236,213.32138C132.85896,212.23276,134.61789,210.91241,135.58342,210.33731C137.9692,209.0133,143.19048,205.28052,146.3663,202.58469C147.78375,201.3233,150.223,199.37222,151.86868,198.16669C153.45775,197.01819,156.68893,194.03726,159.12564,191.63042C161.5054,189.22408,163.8877,187.2733,164.34344,187.27089C164.85623,187.26793,165.87839,186.63557,166.55801,185.89104C167.29489,185.20323,168.31607,184.3997,168.82794,184.2259C169.28275,184.05247,170.1878,182.85078,170.86423,181.53658C171.48401,180.27956,172.21893,179.24974,172.4469,179.24849C173.07364,179.24504,177.65485,173.12263,177.65039,172.32503C177.64822,171.92616,178.09927,171.06892,178.66556,170.43904C179.23154,169.7519,180.13391,168.09444,180.69574,166.66698C181.2576,165.23933,182.15744,163.12608,182.77783,161.98305C183.34125,160.84016,183.84616,159.41301,183.84335,158.90019C183.84045,158.3874,184.40256,157.01678,185.1369,155.87299C186.32263,153.92905,186.37549,153.18802,186.32022,143.27383C186.2652,133.41672,186.20352,132.56241,184.99524,130.46072C184.24753,129.21136,183.67044,127.90411,183.66818,127.50522C183.66626,127.16342,183.20667,126.48221,182.63461,126.08646C182.06271,125.69092,180.97025,123.930664,180.21973,122.168365C178.9501,118.98883,176.14386,115.420074,175.00137,115.41687C174.99985,115.41687,174.99832,115.41687,174.99683,115.4169C174.99445,115.41693,174.99203,115.4169,174.98962,115.4169C174.36261,115.41516,173.37973,114.72772,168.70447,111.00761C167.39291,110.04951,165.79898,109.206154,165.11145,109.20423C165.10916,109.20423,165.1069,109.20423,165.10464,109.20426C165.10025,109.20426,165.09586,109.20429,165.0914,109.20426C164.40192,109.20237,162.92966,108.756905,161.79422,108.1971C159.79303,107.15526,152.50835,106.25044,146.44867,106.23357C146.27908,106.23308,146.11046,106.23332,145.94293,106.23424C138.93492,106.33034,128.17271,107.58678,127.20921,108.50389C126.64229,109.01985,125.390945,109.42586,124.42238,109.43129C123.453705,109.43666,121.804276,109.95857,120.78215,110.59108C119.76001,111.22359,118.56633,111.74303,118.16757,111.74533C117.711716,111.747925,116.574066,112.09601,115.608,112.55719C114.5849,113.01889,112.82144,113.54129,111.62613,113.77612C110.43054,113.95358,109.294174,114.529755,109.12579,114.98654C108.95706,115.38629,108.44652,115.78815,107.99066,115.79059C107.5349,115.79318,106.00029,116.48541,104.523605,117.348236C103.046555,118.15436,101.11543,119.24786,100.263306,119.70831C99.35416,120.16913,98.50334,120.85785,98.33496,121.31445C98.166504,121.77127,97.76962,122.11536,97.48468,122.11694C96.11722,122.1246,86.353165,128.67465,85.33651,130.27577C84.77186,131.19057,83.18438,132.62416,81.82137,133.42924C78.924965,135.15492,75.12783,138.82277,73.207085,141.7964C72.41578,142.9405,71.39616,144.02876,70.8843,144.20259C70.372444,144.37617,69.23931,145.5222,68.44854,146.78008C67.657845,148.0381,66.751976,149.0688,66.46705,149.07039C66.239174,149.07161,65.562065,150.27205,65.00056,151.7566C64.439384,153.29836,63.537216,155.01273,62.971268,155.69965C62.347992,156.32993,61.896683,157.13013,61.898605,157.47192C61.900513,157.8139,61.504776,158.38571,61.051193,158.7872C59.97339,159.64795,57.94783,164.27449,57.95584,165.69899C57.958984,166.26872,57.45027,167.01256,56.82544,167.35786C56.08699,167.76073,55.692654,168.5606,55.698315,169.58623C55.703457,170.49791,55.314693,172.32341,54.866177,173.6364C54.41772,174.94945,54.02934,176.83199,54.03474,177.80074C54.040142,178.7693,53.537777,180.65236,52.861736,182.02367C51.79185,184.30891,51.73959,185.16374,52.018383,194.27895C52.21954,199.69102,52.651028,205.55745,53.059505,207.26463C53.936977,211.36229,54.003674,223.32774,53.15794,224.92786C52.81985,225.6134,52.378124,228.12302,52.22047,230.51703C52.066387,233.5379,51.620647,235.36374,50.88606,236.45044C50.32098,237.30823,49.8146,238.45074,49.817837,239.0206C49.826366,240.55893,48.085155,245.0701,46.89593,246.38715C46.32963,247.01718,45.87788,247.76031,45.879192,247.98819C45.883022,248.67203,41.757874,254.84888,41.02005,255.3659C40.62256,255.59604,39.77385,256.6833,39.03952,257.82703C38.362152,258.97028,37.287746,260.4578,36.608196,261.2023C35.928555,261.94684,34.51399,263.721,33.439663,265.2087C32.364986,266.63913,30.77856,268.24353,29.926357,268.704C29.074244,269.16446,28.168306,270.19516,28.00149,270.93692C27.835032,271.73553,27.439722,272.36456,27.211847,272.36578C26.926912,272.36752,26.192858,273.56805,25.517061,274.99637C24.784296,276.42508,23.371025,278.42712,22.294174,279.4587C21.216888,280.43356,19.802658,282.26465,19.18262,283.4648C18.56283,284.72177,17.2622,286.49545,16.355904,287.4691C15.339752,288.46,14.8809805,288.84024,14.232696,288.83844C13.868651,288.83743,13.444831,288.71594,12.828993,288.51443C11.580282,288.07462,10.061109,287.85944,8.575756,287.85532C6.4618025,287.84943,4.416338,288.27094,3.316469,289.08044C1.8408211,290.1141,1.6724404,290.57092,1.6876992,293.30585C1.702607,295.98386,1.5341423,296.44064,0.4535372,296.78857C-1.9353724,297.54254,-4.5988336,300.1785,-6.516033,303.77908C-7.5878263,305.72217,-8.487668,307.83554,-8.484181,308.46228C-8.481046,309.032,-9.271742,310.29004,-10.178289,311.20682C-11.651488,312.6966,-11.875625,313.38144,-11.860625,316.05945C-11.846679,318.5665,-11.555984,319.59058,-10.121099,321.4628C-9.029943,322.99533,-8.394559,324.52997,-8.387937,325.72662C-8.380261,327.09406,-7.8614244,328.17377,-6.714878,329.42102C-4.770694,331.40012,-0.44003317,334.0467,0.9373097,334.05054C0.94029284,334.05054,0.9432683,334.05054,0.94623613,334.0505C0.9486165,334.05054,0.95101213,334.0505,0.9534154,334.0505C1.465966,334.05194,2.2041407,334.50195,2.604379,335.06708C3.9823017,336.9397,7.470287,339.14243,10.324025,339.9812C12.778189,340.70813,14.438163,342.0665,23.489918,350.84784C29.161955,356.40036,35.577744,362.51846,37.75411,364.50064C39.9303,366.48264,45.20066,371.52444,49.49749,375.717C53.79298,379.85147,57.51504,383.30576,57.744747,383.30643L57.74583,383.30643C57.975765,383.30704,59.118313,384.09744,60.261475,385.00174C61.406464,385.96384,63.75338,387.88806,65.470604,389.30316C67.18763,390.661,69.01948,392.1892,69.47759,392.58545C69.93563,392.98187,70.96502,393.65997,71.764854,394.05414C72.56489,394.4486,74.22512,395.8639,75.54268,397.1101C76.86047,398.4132,79.148796,400.0529,80.69169,400.84213C82.17754,401.63168,84.46401,402.92935,85.778946,403.71973C89.95389,406.48834,102.29551,412.5733,105.49134,413.46722C107.2035,413.97058,110.68748,415.43243,113.201836,416.72906L117.77339,419.09674L125.18115,419.16956C129.28394,419.2033,142.33505,419.70044,154.2473,420.3177C164.79651,420.8139,176.73026,421.1685,182.6467,421.18497C183.41095,421.1871,184.07477,421.18356,184.62222,421.17398L193.39626,421.01108L195.70723,426.6962L198.01811,432.38132L198.53432,443.20462C199.10841,454.19858,199.69981,458.06973,201.19322,460.22678C201.70955,460.85068,202.06163,462.67203,202.07115,464.38144C202.08894,467.57217,202.84428,470.18906,204.04591,471.09396C205.19026,471.94223,205.5995,473.82022,204.8076,474.85037C204.4116,475.3655,203.33351,476.16916,202.31078,476.6877C200.66307,477.5516,200.49443,477.95132,200.17073,481.20102C199.95421,483.25345,200.08342,485.98782,200.49117,487.5809C201.01671,489.85733,200.96349,490.5413,200.28395,491.2858C198.9246,492.77487,197.8596,495.91476,197.42383,499.50705C197.09875,502.5286,196.92975,502.8715,194.82825,504.0798L192.613,505.34567L192.63596,509.4481C192.65567,512.9807,192.48883,513.72253,191.35562,514.8683C186.19891,519.96826,184.74155,524.307,186.98383,527.88403C187.61658,528.96326,188.1937,530.2705,188.19623,530.7263C188.19873,531.1821,186.66919,532.786,184.85419,534.2777C182.98218,535.76965,179.75317,539.14966,177.60236,541.7256C172.62178,547.73627,172.28807,549.2198,172.08336,563.5798C171.96281,572.6403,172.08855,574.74786,172.89613,576.5098C173.76195,578.4991,173.76387,578.841,172.80763,581.06854C172.30241,582.439,171.6273,583.9814,171.34554,584.55255C170.21773,586.66705,168.03313,593.4029,168.04008,594.65643C168.04395,595.3403,167.53781,596.53986,166.91553,597.3409C166.29321,598.14215,165.78833,599.5693,165.79337,600.4809C165.79843,601.39264,165.46143,602.2492,165.00653,602.4228C163.92621,602.8276,162.353,606.825,161.80298,610.3608C161.58356,611.90045,161.08374,614.23944,160.74896,615.4948C160.35706,616.7507,159.86142,619.83014,159.64746,622.33856C159.43356,624.84686,158.93732,627.81256,158.60141,628.89703C158.26563,629.9815,157.98956,631.57855,157.99402,632.37616C157.99881,633.2308,157.49585,635.00006,156.87674,636.37103C156.25757,637.7419,155.75792,640.081,155.76585,641.50543C155.77502,643.15765,155.44017,644.41315,154.92989,644.8719C154.47621,645.2734,153.97018,646.4726,153.80582,647.6701C153.64128,648.8105,153.08456,651.1501,152.63857,652.9189C152.24927,654.63043,151.86374,657.0257,151.8701,658.16534C151.87646,659.3049,151.37378,661.1309,150.69641,662.27435C149.28534,664.6753,149.58736,667.75055,151.41797,669.05096C152.50467,669.78546,152.56425,670.2413,152.2405,673.4909C152.02367,675.48627,151.63605,677.48285,151.3539,677.99725C151.12889,678.5113,150.81906,684.2679,150.74165,690.821C150.61845,699.3687,150.29877,703.3592,149.73824,705.0146C149.28943,706.2707,148.7343,708.89484,148.57437,710.8901C148.19502,714.368,147.3533,716.7088,145.31798,719.56903C144.01768,721.39984,141.9308,725.22894,139.84705,729.62823C138.04466,733.39886,136.34421,735.00385,134.06512,735.01654C133.26738,735.02094,131.108,736.05865,129.23471,737.3227C127.361404,738.58673,125.48688,739.6226,125.08801,739.62494C123.4357,739.6342,113.05828,748.581,113.06588,749.9484C113.06814,750.3471,112.39103,751.54767,111.599304,752.63446C110.807724,753.72174,109.172424,756.8077,107.93417,759.5495C104.61356,766.9186,104.44483,767.3185,103.70919,768.2341C103.369896,768.69196,102.52729,770.8619,101.855934,773.08795C100.28973,778.3388,99.44564,780.2238,98.64788,780.2281C98.24909,780.2304,97.1719,781.205,96.20959,782.35004C91.05957,788.64655,87.83563,792.93805,85.689156,796.3118C84.33314,798.37067,81.44571,801.69147,79.23505,803.7553C76.96695,805.76215,74.645134,808.3393,74.082054,809.5389C72.165474,813.25336,69.47022,820.3909,67.625885,826.84C66.61934,830.26434,64.712265,835.68805,63.419296,838.82916C62.069626,842.0275,60.727283,846.5367,60.28574,849.1031C59.900806,851.61224,59.070316,855.9476,58.45941,858.79987C57.848267,861.5954,57.296616,864.84625,57.302628,865.9288C57.30864,867.0114,56.922836,869.3497,56.41954,871.0618C54.688503,877.3964,53.233303,892.3334,53.673504,899.7383C53.925274,904.0104,53.98382,904.29504,57.14299,908.8357L60.359806,913.49023L75.185905,915.5156L90.011986,917.541L97.1248,915.792L104.18047,914.04333L107.68331,908.6676C109.604004,905.69385,111.40857,902.32214,111.62982,901.12427C112.29663,898.10046,111.74753,871.1521,110.9279,867.2251C109.231125,859.2572,109.95189,845.46423,112.31351,839.8099C112.70717,838.89594,112.986084,837.8118,112.98355,837.356C112.97719,836.2165,113.99176,834.2165,115.23856,833.013C115.74842,832.4974,116.36567,830.7846,116.58509,829.24493C116.74703,827.6485,117.19529,826.2786,117.53649,826.1628C117.87771,826.0468,118.32249,824.05,118.65121,821.71185C118.923164,819.3742,119.36715,817.2635,119.70713,816.91974C119.99041,816.63324,120.27056,815.7768,120.26681,815.0932C120.26296,814.40936,120.88433,813.4373,121.622154,812.9205C122.41729,812.46027,123.15302,811.5444,123.3207,810.9738C123.54544,810.40265,124.79164,809.08527,126.096375,808.0523C127.458405,807.07574,128.98799,805.472,129.55272,804.55695C130.06013,803.58563,130.85371,802.8405,131.30954,802.83795C131.70834,802.83563,133.41257,801.9145,135.05894,800.8228C136.76228,799.73065,138.2956,798.81036,138.58044,798.8089C138.8654,798.8073,140.73643,797.14435,142.7762,795.0816C144.81596,793.0191,147.14188,791.1828,147.93832,790.9504C149.30388,790.6009,152.6541,788.5309,155.20609,786.35156C155.88658,785.77783,157.47093,783.77466,158.71364,781.83044C161.59566,777.5409,162.27626,776.9673,166.36916,775.2351C168.58621,774.31104,171.0264,772.531,173.74701,769.9518C175.95743,767.8311,178.11304,766.1098,178.51193,766.1076C179.65149,766.10114,190.07513,755.21686,190.69171,753.3901C191.02844,752.4765,191.48047,751.7902,191.76541,751.7885C192.05028,751.7869,192.72862,750.8145,193.34862,749.6145C196.84258,742.64343,199.71794,737.1576,200.22816,736.6986C200.51118,736.3552,200.73558,735.7273,200.73305,735.2715C200.73015,734.75867,201.12233,733.5598,201.63011,732.6454C202.1374,731.6737,202.75554,730.13196,202.97847,729.219C203.8163,726.19446,207.13164,717.8568,208.48639,715.5702C209.16351,714.36975,210.06299,712.19946,210.33966,710.71643C210.67355,709.29016,211.34625,707.292,211.73993,706.3783C212.19037,705.407,213.14056,702.097,213.8638,698.9589C215.25455,692.9114,216.31903,689.6575,218.17706,685.65857L219.36026,683.2589L226.53946,683.2189C232.52219,683.1854,234.23032,682.948,236.27638,682.025C237.81062,681.27545,239.97359,680.86456,241.96779,680.85345C246.07024,680.8306,247.1483,680.0269,247.52943,676.8339C247.74937,675.408,248.19728,673.98114,248.59389,673.58014C248.9905,673.179,249.4944,671.5809,249.65715,670.09845C249.81975,668.616,250.37813,666.5616,250.8282,665.5335C251.22133,664.50555,251.61351,663.3068,251.61131,662.90814C251.60881,662.4522,252.0041,661.8232,252.45769,661.4217C252.91136,661.02057,253.30544,660.1635,253.30135,659.4228C253.29271,657.88446,254.75694,654.7994,256.1734,653.3669C256.7967,652.73663,257.24774,651.87946,257.24518,651.42365C257.24268,650.96783,257.46838,650.5677,257.8103,650.56586C258.09515,650.5643,259.11157,648.90607,260.01196,646.9068C260.9126,644.90753,261.8713,643.1357,262.21188,642.90594C262.5529,642.733,263.11368,641.1346,263.44608,639.42316C263.8881,637.1829,264.3362,636.03705,264.73813,636.03815C264.99112,636.0389,265.22586,636.4943,265.4291,637.4178C265.6622,638.3283,266.06607,639.2376,266.35196,639.4069C266.6381,639.63324,266.8702,640.37286,266.87405,641.05646C266.87814,641.7973,267.3406,642.9913,267.91446,643.7288C269.06238,645.2039,270.91425,650.32184,270.92413,652.0881C270.9276,652.7149,271.50403,653.90814,272.13562,654.75946C273.22577,656.1209,273.40112,656.91754,273.3152,661.9322C273.28113,666.0351,273.52008,668.028,274.1538,669.27814C274.6148,670.1872,275.01996,671.3245,275.02277,671.83734C275.02563,672.35004,275.5445,673.4299,276.17566,674.22394C276.807,675.01825,277.32678,676.269,277.33087,677.0096C277.3385,678.377,278.19946,679.5118,283.6442,685.1794C286.94705,688.6147,291.14316,690.8072,294.49442,690.81647C294.5159,690.8166,294.53732,690.81647,294.55875,690.81647C294.58078,690.81635,294.60263,690.81635,294.62424,690.81635C295.94107,690.82,296.3942,691.17194,297.019,692.62616C299.6756,698.9932,301.18945,704.7967,302.08838,712.71173C302.44763,715.84357,303.0931,719.2017,303.55472,720.2249C304.01596,721.19086,304.3679,723.01227,304.3752,724.3227C304.3901,727.0008,305.50644,733.0345,307.90076,743.44855C308.19257,744.7005,308.43134,746.6364,308.4947,747.7757C308.50482,749.59906,308.22174,749.94244,305.15637,752.0108C303.22583,753.2181,301.0155,755.33856,299.99817,756.826C296.7771,761.63007,293.8371,765.7492,292.9875,766.66547C292.4773,767.1241,291.29156,769.0682,290.33337,770.9538C289.375,772.78265,287.7929,775.18463,286.9439,776.2148C286.03802,777.2454,285.3039,778.4462,285.30615,778.84515C285.30835,779.24384,284.57593,780.72955,283.61493,782.10223C282.0332,784.56134,280.63605,789.4693,279.98483,795.2851C279.76767,797.22345,279.09158,798.5948,277.56332,800.4267C275.18576,803.2321,274.05673,805.1186,274.06253,806.1441C274.06473,806.5429,273.5557,807.2297,272.93118,807.63214C272.3066,808.03424,271.798,808.7778,271.80112,809.3476C271.80783,810.5441,267.13162,820.086,265.7725,821.57513C265.2629,822.1479,264.1259,822.61005,263.2712,822.6148C262.4166,822.6197,261.50644,822.9095,261.2805,823.2526C261.11148,823.5955,259.8621,824.3432,258.5548,824.9203C254.97377,826.47864,254.06966,827.8513,253.8647,831.95496C253.76186,833.9499,253.09431,836.85944,252.36339,838.62994C251.63228,840.34357,250.62321,843.3121,250.17784,845.1949C249.28584,848.7326,246.98415,854.89935,245.57454,857.585C244.95354,858.6143,244.73866,860.95184,244.7635,865.39594C244.80193,872.2902,245.61293,874.6789,248.70311,877.0549C249.56169,877.73395,251.5084,879.43243,253.05507,880.9051C254.658,882.43365,256.08832,883.6219,256.26074,883.62225L256.26233,883.62225C256.49176,883.623,257.23383,884.1308,257.9198,884.75275C258.6637,885.3184,260.43506,886.22003,261.9193,886.7247C263.34674,887.22943,264.94592,887.90436,265.40332,888.1868C267.4406,889.40314,269.00372,889.80035,273.56512,889.81305C274.50787,889.8156,275.5786,889.80194,276.80817,889.7756C279.7702,889.679,282.5357,889.6397,284.057,889.644C284.70087,889.6458,285.1219,889.65533,285.2406,889.6717C286.26685,889.77985,288.80728,895.7486,288.82028,898.0848C288.8273,899.3382,289.34732,900.6457,290.2081,901.7237C290.95352,902.57416,291.69998,903.59576,291.81552,903.8798C291.87405,904.16437,297.01584,906.5859,303.12732,909.2297L314.20844,914.0683L328.79486,913.9869L343.32428,913.9057L345.74475,908.5932L348.1086,903.338L346.6448,896.2804C345.29865,889.9063,345.00903,889.05316,343.34842,887.5809C342.3762,886.73285,341.3478,885.9987,341.11826,885.998L341.11612,885.998C340.88797,885.9974,340.48734,885.4876,340.31332,884.863C339.90683,883.4975,336.18283,879.87164,334.7562,879.4808C334.2421,879.2558,333.61148,878.5755,333.37985,877.893C332.62576,875.5041,330.7913,873.5201,328.33524,872.451C326.793,871.77606,325.53372,870.7574,325.01547,869.79156C324.61166,868.88214,323.17987,867.5795,321.8083,866.8465C320.15082,865.94403,319.4057,865.1507,319.40088,864.2961C319.39142,862.5865,318.81744,861.84894,317.10522,861.34576C315.27887,860.7862,314.81915,860.1048,314.80676,857.88275C314.7998,856.6292,314.39648,855.8337,313.53833,855.21173C312.22345,854.4213,312.22345,854.4213,314.49646,853.3261C317.05377,852.1153,317.67004,850.2316,316.45734,847.33234C315.66315,845.54425,313.27673,844.5911,309.4071,844.5804C309.3404,844.58014,309.2732,844.58014,309.20557,844.5806C309.10712,844.58124,309.01245,844.58136,308.92145,844.5811C306.90558,844.5755,306.6626,844.3427,305.8894,842.54803C304.27234,838.6823,304.6101,837.9395,310.10486,832.1539C312.93756,829.23224,315.2024,826.65546,315.20087,826.37054C315.19916,826.08575,316.27667,825.16815,317.6394,824.30585C318.9452,823.44366,320.81754,822.00885,321.72397,821.092C324.33145,818.62726,327.39255,815.81805,328.58334,814.7858C329.15024,814.26984,330.56717,812.8945,331.75674,811.6342C334.70175,808.4268,337.3101,806.13336,339.69418,804.5245C340.88632,803.7203,341.8505,802.91705,341.84958,802.74603C341.848,802.46136,345.24118,797.88385,350.33237,791.24585C350.95438,790.3877,351.91367,788.72986,352.36282,787.53076C352.86935,786.3883,353.603,785.13074,353.99997,784.7866C354.4542,784.499,355.18484,782.6719,355.68704,780.7886C356.85977,776.50867,358.3206,772.7969,360.79904,767.6547C362.1506,764.7983,362.82162,762.5152,363.0336,759.6651C363.24924,757.4417,363.6932,755.3311,363.97562,754.8736C364.31516,754.4727,364.74588,749.96893,364.94406,744.6119C365.0835,738.96985,365.51483,734.5801,365.90955,733.83716C366.3042,733.0941,366.79572,729.2738,367.11536,725.28345C367.37805,721.29346,367.80078,715.3651,368.1242,712.05835C369.0354,701.7401,368.7108,684.4201,367.48685,679.52655C366.1472,674.29193,366.1846,660.5595,367.53714,657.87384C367.9882,657.01666,368.38034,655.81793,368.37723,655.2481C368.36954,653.88055,364.6196,645.5826,363.53,644.335C362.89938,643.6547,362.6066,642.232,362.59354,639.8958C362.5831,638.01544,362.17026,635.5107,361.7084,634.43085C361.18857,633.1801,360.83237,630.618,360.81808,628.054C360.79837,624.5213,360.5651,623.5539,359.64835,622.6473C358.7889,621.79755,358.49832,620.7735,358.48618,618.60834C358.4767,616.899,358.0098,614.9073,357.37607,613.6574C355.99393,611.0439,354.6943,602.7889,354.71762,596.7492C354.749,592.1335,355.6924,587.6269,357.15952,585.0545C358.28787,583.05396,358.2491,576.10266,357.03867,573.60223C356.05893,571.61346,354.1956,564.4443,354.18607,562.73505C354.1829,562.1651,353.66592,561.4274,353.03702,561.03204C352.408,560.6368,351.8901,559.72797,351.88596,558.9871C351.88217,558.3034,351.47476,556.7674,351.01254,555.63043C350.5507,554.5501,350.14194,552.7861,350.1362,551.76044C350.13052,550.7349,349.60953,549.25616,348.9783,548.4621C348.34708,547.668,347.8295,546.8162,347.82755,546.47437C347.8259,546.1892,347.30923,545.5083,346.67935,544.942C345.82065,544.2062,345.52994,543.1821,345.5179,541.01685C345.4434,537.88354,343.87643,532.76404,342.49966,531.1194C341.181,529.645,340.65317,526.9702,341.56174,526.39526C341.959,526.10803,344.00888,525.86865,346.1171,525.85693C350.44742,525.83264,353.23276,524.6207,353.79044,522.4524C354.40347,519.9989,353.47794,507.29745,352.5565,505.53616C352.0955,504.6271,351.5707,502.46487,351.33316,500.7568C350.79752,496.65726,349.74332,491.535,349.22647,490.79703C348.9966,490.45645,348.5895,488.97714,348.3527,487.3832C348.11612,485.84598,347.47733,483.6843,346.95816,482.54764C346.38235,481.46823,345.6229,478.11057,345.2075,475.15005C344.7922,472.18942,344.1979,467.8052,343.84268,465.41403C343.31076,461.99826,343.36044,460.68735,343.92166,459.14572C344.42715,457.83255,344.68985,453.84256,344.7052,446.37793C344.7616,436.0642,345.39862,427.68463,346.57074,423.2907C346.9065,422.2063,347.10583,417.07703,347.07703,411.89197C347.03564,404.4848,346.79114,401.52325,345.8598,397.9956C344.1693,391.16742,343.28033,385.01868,343.96185,384.61615C345.26794,383.81107,345.87622,380.50278,346.1198,373.0941C346.3672,366.369,346.2437,364.66037,345.19525,360.56363C344.37982,357.3773,343.90326,353.67624,343.8231,349.51727C343.6564,340.0594,344.8323,336.3491,351.1617,326.96924C352.06567,325.5967,354.604,320.9672,356.97168,316.39548C357.64838,315.13828,358.49506,313.7089,358.83447,313.25122C359.17377,312.79355,359.6808,311.7651,359.90454,311.0232C360.1281,310.22403,361.1438,308.45215,362.10455,307.0224C363.46082,305.02032,364.5957,304.15924,366.47247,303.52203C367.8943,303.0584,369.7689,302.02228,370.73367,301.33325C372.3217,300.01376,372.37717,299.7285,372.6879,294.1428C372.8976,290.89386,373.33603,287.75745,373.6741,287.07172C374.01212,286.38614,374.454,283.87668,374.61124,281.42554C374.98465,276.86493,375.99478,274.06757,378.37186,271.20508C379.1075,270.28937,379.89725,268.8605,380.0637,268.0617C380.2872,267.26288,380.96396,266.00552,381.58664,265.26135C382.2092,264.51718,382.71732,263.65958,382.71542,263.31772C382.7131,262.91885,383.61392,260.97665,384.68542,258.97632C385.81348,256.91858,387.05273,254.34753,387.50244,253.26257C388.00925,252.17706,388.6287,250.863,388.91104,250.40567C389.1934,249.94818,390.6589,247.09113,392.12387,244.11998C393.58865,241.14882,395.96085,237.37483,397.37637,235.77165C402.01907,230.44649,403.03738,229.13051,403.0333,228.38979C403.03104,227.99092,403.42728,227.53291,403.8818,227.30226C404.96225,226.8976,411.35205,218.14398,412.36438,215.74515C413.54462,212.83261,413.26166,213.17615,422.89746,204.06255C425.39136,201.71239,427.943,199.47597,428.45428,199.1881C429.36298,198.67036,433.4438,194.77287,441.20715,187.09427C442.17047,186.12045,443.98138,183.88806,445.22504,182.11475C446.46863,180.34142,447.88416,178.73808,448.33905,178.56465C449.3058,178.21742,451.8507,174.78438,454.05212,171.0685C454.84192,169.63948,456.87946,167.17801,458.63666,165.51584C460.33667,163.85403,462.4879,161.33478,463.3352,160.0195C464.18228,158.64734,465.7662,156.58734,466.89975,155.4982C469.39273,152.97722,472.72964,148.51422,474.42154,145.371C476.45175,141.59894,478.88626,138.79337,481.2726,137.58331C484.73843,135.7976,487.79807,132.70381,488.1849,130.53633C488.40707,129.50948,489.13986,128.08095,489.87668,127.39296C490.61368,126.70531,491.34714,125.39052,491.51328,124.53502C491.90225,122.76644,493.08737,120.70837,497.3831,114.473785C498.96545,112.128845,500.43347,109.72755,500.6579,109.099434C500.99298,107.90089,505.1397,105.59854,506.849,105.58911C507.30493,105.58649,508.44067,104.896576,509.40472,104.093414C510.8792,102.83154,511.16064,102.20322,511.14886,100.09506C511.1352,97.64509,511.1917,97.587685,513.07214,97.57725C514.09766,97.57148,516.0884,96.933754,517.50867,96.185005C518.8722,95.43662,520.634,94.62913,521.4305,94.396706C522.1699,94.16483,524.1026,93.35624,525.7509,92.60634C527.34235,91.85675,529.447,91.21814,530.41565,91.21274C535.1447,91.186386,540.13586,87.05613,540.1139,83.12459C540.1036,81.30136,539.7586,80.73341,537.81287,79.20578C536.29205,78.011925,535.50665,77.614296,534.39343,77.6112C534.0824,77.61034,533.7456,77.64029,533.36017,77.69226C530.57043,78.106476,524.53845,79.56462,523.51587,80.0832C523.43616,80.123604,523.3844,80.14283,523.35803,80.14275C523.23413,80.14242,523.6734,79.714615,524.4218,79.052505C526.2367,77.50395,529.47797,76.34642,535.5113,75.173195C537.5604,74.81968,539.66565,74.238304,540.1765,73.9504C541.37006,73.37408,541.9794,70.2368,541.45294,67.789444C540.92773,65.57032,539.38354,64.55323,535.44836,63.89155C533.7374,63.616043,532.7104,63.39392,533.2801,63.33371C534.36224,63.27073,537.1278,58.52591,537.11786,56.759583C537.1141,56.07593,536.4803,54.825916,535.6778,53.975803C534.52264,52.785683,534.05597,52.516365,531.3369,52.50878 Z"/> </g> <g style="fill:rgb(0,0,0); fill-opacity:1.0; stroke-linejoin: miter"> <path d="M504.99512,-67.04633C508.30756,-67.03711,509.73425,-66.81129,510.16382,-66.28026C510.56525,-65.82676,511.53668,-65.31935,512.3928,-65.096176C513.87604,-64.762535,514.6779,-64.02621,518.57684,-59.660522C520.9856,-56.881977,522.0428,-51.189877,521.1637,-45.373005C520.5051,-40.81104,519.71674,-39.1543,517.33215,-37.659473C516.4805,-37.084896,515.0061,-35.823006,513.9862,-34.79196C512.01556,-32.831303,508.4262,-31.811802,504.70593,-31.822163C501.7937,-31.83028,498.80124,-32.46947,496.4421,-33.782272C492.72708,-35.812805,489.059,-39.66706,488.24594,-42.39761C487.3757,-45.184525,487.3312,-53.161537,488.11075,-56.41379C488.89096,-59.55195,492.74197,-63.78987,496.43552,-65.63401C498.59457,-66.72856,500.07474,-66.96463,504.29065,-67.04522C504.5345,-67.04658,504.76917,-67.04696,504.99512,-67.04633 Z"/> </g> </g> </svg>